<svg xmlns="http://www.w3.org/2000/svg" viewBox="0 0 128 128" fill="none">
  <rect width="128" height="128" rx="24" fill="#0F0F0F"/>
  <!-- Brain / AI symbol -->
  <path d="M44 48C44 40 52 32 64 32C76 32 84 40 84 48C84 56 76 60 64 60C52 60 44 56 44 48Z" fill="none" stroke="#8B5CF6" stroke-width="4"/>
  <path d="M48 60C44 56 40 52 40 44C40 36 44 28 52 24" fill="none" stroke="#8B5CF6" stroke-width="4" stroke-linecap="round"/>
  <path d="M80 60C84 56 88 52 88 44C88 36 84 28 76 24" fill="none" stroke="#8B5CF6" stroke-width="4" stroke-linecap="round"/>
  <!-- Herdr workspace panes -->
  <rect x="40" y="72" width="20" height="16" rx="3" fill="#8B5CF6" opacity="0.4"/>
  <rect x="68" y="72" width="20" height="16" rx="3" fill="#8B5CF6" opacity="0.7"/>
  <!-- Sparkle -->
  <path d="M64 92L66 96L70 98L66 100L64 104L62 100L58 98L62 96Z" fill="#FACC15"/>
</svg>